<svg xmlns:xlink="http://www.w3.org/1999/xlink" xmlns:ev="http://www.w3.org/2001/xml-events" viewBox="0 0 1132 804" height="804" xmlns="http://www.w3.org/2000/svg" width="1132"><style type="text/css"><![CDATA[
.st1 {fill:#1f6391;font-family:Arial;font-size:14pt}
.st2 {fill:#ffffff;font-family:Arial;font-size:15pt}
]]></style><defs><linearGradient x1="0%" y1="0%" x2="0%" y2="100%" id="lg1"><stop offset="0" stop-color="#c2c2c2"/><stop offset="0.36" stop-color="#e5e5e5"/><stop offset="1" stop-color="#d4d4d4"/></linearGradient><linearGradient x1="0%" y1="0%" x2="0%" y2="100%" id="lg2"><stop offset="0" stop-color="#dedede"/><stop offset="0.36" stop-color="#f5f5f5"/><stop offset="1" stop-color="#e6e6e6"/></linearGradient><linearGradient x1="0%" y1="0%" x2="0%" y2="100%" id="lg3"><stop offset="0" stop-color="#303030"/><stop offset="0.41" stop-color="#4b4b4b"/><stop offset="1" stop-color="#303030"/></linearGradient><linearGradient x1="0%" y1="0%" x2="0%" y2="100%" id="lg4"><stop offset="0" stop-color="#038ed3"/><stop offset="1" stop-color="#0052a4"/></linearGradient><linearGradient x1="1" y1="-0" x2="1" y2="2" gradientUnits="userSpaceOnUse" id="lg5"><stop offset="0" stop-color="#303030"/><stop offset="0.41" stop-color="#4b4b4b"/><stop offset="1" stop-color="#303030"/></linearGradient><linearGradient x1="8" y1="-1" x2="3" y2="10" gradientUnits="userSpaceOnUse" id="lg6"><stop offset="0" stop-color="#52b433"/><stop offset="0.87" stop-color="#ecf8f1"/></linearGradient><linearGradient x1="4" y1="-1" x2="6" y2="10" gradientUnits="userSpaceOnUse" id="lg7"><stop offset="0.09" stop-color="#f56d2b"/><stop offset="0.87" stop-color="#ecf8f1"/></linearGradient><linearGradient x1="-0" y1="9" x2="11" y2="0" gradientUnits="userSpaceOnUse" id="lg8"><stop offset="0.24" stop-color="#1257ab"/><stop offset="0.87" stop-color="#f4fbf7"/></linearGradient><linearGradient x1="2" y1="10" x2="9" y2="-1" gradientUnits="userSpaceOnUse" id="lg9"><stop offset="0" stop-color="#ffec0f"/><stop offset="0.55" stop-color="#f4fbf6"/></linearGradient><linearGradient x1="76" y1="29" x2="-5" y2="43" gradientUnits="userSpaceOnUse" id="lg10"><stop offset="0" stop-color="#ffffff" stop-opacity="0.14"/><stop offset="1" stop-color="#ffffff" stop-opacity="0"/></linearGradient><linearGradient x1="30" y1="-13" x2="63" y2="61" gradientUnits="userSpaceOnUse" id="lg11"><stop offset="0" stop-color="#373737"/><stop offset="0.52" stop-color="#494949"/><stop offset="0.03" stop-color="#474747"/></linearGradient><linearGradient x1="100%" y1="0%" x2="0%" y2="0%" id="lg12"><stop offset="0.14" stop-color="#343434"/><stop offset="0.66" stop-color="#383838"/><stop offset="1" stop-color="#353535"/></linearGradient><linearGradient x1="19" y1="-9" x2="43" y2="42" gradientUnits="userSpaceOnUse" id="lg13"><stop offset="0.45" stop-color="#4a4a4a"/><stop offset="0.49" stop-color="#565656"/><stop offset="0.51" stop-color="#414141"/></linearGradient><linearGradient x1="100%" y1="0%" x2="0%" y2="0%" id="lg14"><stop offset="0" stop-color="#414141"/><stop offset="0.25" stop-color="#4c4c4c"/><stop offset="1" stop-color="#353535"/></linearGradient><linearGradient x1="28" y1="47" x2="-7" y2="41" gradientUnits="userSpaceOnUse" id="lg15"><stop offset="0" stop-color="#8f8f8f" stop-opacity="0.2"/><stop offset="0.52" stop-color="#686868" stop-opacity="0"/></linearGradient><clipPath id="clip1"><path d="M0,0L0,1.8L19.4,10.8L19.4,8.9L0,0z"/></clipPath><linearGradient x1="0%" y1="0%" x2="100%" y2="0%" id="lg16"><stop offset="0" stop-color="#333333"/><stop offset="1" stop-color="#000000"/></linearGradient><linearGradient x1="0%" y1="0%" x2="0%" y2="100%" id="lg17"><stop offset="0" stop-color="#333333"/><stop offset="1" stop-color="#000000"/></linearGradient><clipPath id="clip2"><path d="M0,0L0,2L19.4,10.9L19.4,8.7L0,0z"/></clipPath><linearGradient x1="0%" y1="0%" x2="100%" y2="0%" id="lg18"><stop offset="0" stop-color="#333333"/><stop offset="1" stop-color="#000000"/></linearGradient><linearGradient x1="0%" y1="0%" x2="0%" y2="100%" id="lg19"><stop offset="0" stop-color="#333333"/><stop offset="1" stop-color="#000000"/></linearGradient><clipPath id="clip3"><path d="M0,0L0,2.1L19.5,11.1L19.5,9.1L0,0z"/></clipPath><linearGradient x1="0%" y1="0%" x2="100%" y2="0%" id="lg20"><stop offset="0" stop-color="#333333"/><stop offset="1" stop-color="#000000"/></linearGradient><linearGradient x1="0%" y1="0%" x2="0%" y2="100%" id="lg21"><stop offset="0" stop-color="#333333"/><stop offset="1" stop-color="#000000"/></linearGradient><clipPath id="clip4"><path d="M0,0L0,2.1L19.3,10.9L19.3,8.9L0,0z"/></clipPath><linearGradient x1="0%" y1="0%" x2="100%" y2="0%" id="lg22"><stop offset="0" stop-color="#333333"/><stop offset="1" stop-color="#000000"/></linearGradient><linearGradient x1="0%" y1="0%" x2="0%" y2="100%" id="lg23"><stop offset="0" stop-color="#333333"/><stop offset="1" stop-color="#000000"/></linearGradient><clipPath id="clip5"><path d="M0,0L0,1.8L17.5,9.4L17.5,7.7L0,0z"/></clipPath><linearGradient x1="0%" y1="0%" x2="100%" y2="0%" id="lg24"><stop offset="0" stop-color="#006fbd"/><stop offset="1" stop-color="#004371"/></linearGradient><linearGradient x1="0%" y1="0%" x2="0%" y2="100%" id="lg25"><stop offset="0" stop-color="#006fbd"/><stop offset="1" stop-color="#004371"/></linearGradient><linearGradient x1="0%" y1="0%" x2="100%" y2="0%" id="lg26"><stop offset="0" stop-color="#00538e"/><stop offset="1" stop-color="#00406e"/></linearGradient><clipPath id="clip6"><path d="M0,0L0,2.2L17.6,10.1L17.6,8.1L0,0z"/></clipPath><linearGradient x1="0%" y1="0%" x2="100%" y2="0%" id="lg27"><stop offset="0" stop-color="#006fbd"/><stop offset="1" stop-color="#004371"/></linearGradient><linearGradient x1="0%" y1="0%" x2="0%" y2="100%" id="lg28"><stop offset="0" stop-color="#006fbd"/><stop offset="1" stop-color="#004371"/></linearGradient><clipPath id="clip7"><path d="M0,0L17.7,8L17.7,9.8L0,2.2L0,0z"/></clipPath><linearGradient x1="0%" y1="0%" x2="100%" y2="0%" id="lg29"><stop offset="0" stop-color="#006fbd"/><stop offset="1" stop-color="#004371"/></linearGradient><linearGradient x1="0%" y1="0%" x2="0%" y2="100%" id="lg30"><stop offset="0" stop-color="#006fbd"/><stop offset="1" stop-color="#004371"/></linearGradient><clipPath id="clip8"><path d="M0,0L17.7,8.3L17.7,10.2L0,2.2L0,0z"/></clipPath><linearGradient x1="0%" y1="0%" x2="0%" y2="100%" id="lg31"><stop offset="0.63" stop-color="#006fbd"/><stop offset="1" stop-color="#004371"/></linearGradient><linearGradient x1="100%" y1="0%" x2="0%" y2="0%" id="lg32"><stop offset="0.63" stop-color="#006fbd"/><stop offset="1" stop-color="#004371"/></linearGradient><linearGradient x1="0%" y1="0%" x2="0%" y2="100%" id="lg33"><stop offset="0" stop-color="#40c2f2"/><stop offset="0.75" stop-color="#45c4f3" stop-opacity="0"/></linearGradient><linearGradient x1="0%" y1="0%" x2="0%" y2="100%" id="lg34"><stop offset="0.29" stop-color="#40c2f2" stop-opacity="0.78"/><stop offset="0.72" stop-color="#45c4f3" stop-opacity="0"/></linearGradient><linearGradient x1="16" y1="6" x2="-1" y2="3" gradientUnits="userSpaceOnUse" id="lg35"><stop offset="0.07" stop-color="#40c2f2"/><stop offset="0.41" stop-color="#45c4f3" stop-opacity="0"/></linearGradient><linearGradient x1="16" y1="6" x2="-1" y2="3" gradientUnits="userSpaceOnUse" id="lg36"><stop offset="0" stop-color="#40c2f2" stop-opacity="0.9"/><stop offset="0.41" stop-color="#45c4f3" stop-opacity="0"/></linearGradient><radialGradient fy="0" cx="0" gradientUnits="userSpaceOnUse" fx="0" r="64.1" cy="0" id="rg1"><stop offset="0" stop-color="#54a0f9"/><stop offset="1" stop-color="#4195f8"/></radialGradient><linearGradient x1="0%" y1="0%" x2="0%" y2="100%" id="lg37"><stop offset="0" stop-color="#a1d979"/><stop offset="1" stop-color="#7ac941"/></linearGradient><linearGradient x1="100%" y1="0%" x2="0%" y2="0%" id="lg38"><stop offset="0" stop-color="#bac0c1"/><stop offset="0.15" stop-color="#f4fafc"/><stop offset="0.25" stop-color="#f8fcfd"/><stop offset="0.44" stop-color="#d5dbdd"/><stop offset="0.6" stop-color="#bdc3c4"/><stop offset="0.8" stop-color="#a0a4a6"/><stop offset="0.97" stop-color="#929697"/><stop offset="1" stop-color="#c2c7c9"/></linearGradient><linearGradient x1="100%" y1="0%" x2="0%" y2="0%" id="lg39"><stop offset="0" stop-color="#b5b5b5"/><stop offset="0.01" stop-color="#ffffff"/><stop offset="0.05" stop-color="#ebebeb"/><stop offset="0.9" stop-color="#e7e7e7"/><stop offset="0.95" stop-color="#e2e2e2"/><stop offset="1" stop-color="#a8a8a8"/></linearGradient><linearGradient x1="100%" y1="0%" x2="0%" y2="0%" id="lg40"><stop offset="0" stop-color="#35507e"/><stop offset="0.01" stop-color="#8c9ec6"/><stop offset="0.05" stop-color="#476aa6"/><stop offset="0.9" stop-color="#4668a3"/><stop offset="0.95" stop-color="#44669f"/><stop offset="1" stop-color="#304a75"/></linearGradient><linearGradient x1="100%" y1="0%" x2="0%" y2="0%" id="lg41"><stop offset="0" stop-color="#6074a1"/><stop offset="0.15" stop-color="#8ba2d6"/><stop offset="0.25" stop-color="#c6cfe8"/><stop offset="0.44" stop-color="#6e85b8"/><stop offset="0.6" stop-color="#6276a4"/><stop offset="0.8" stop-color="#51638a"/><stop offset="0.97" stop-color="#4a5a7e"/><stop offset="1" stop-color="#6479a8"/></linearGradient><linearGradient x1="100%" y1="0%" x2="0%" y2="0%" id="lg42"><stop offset="0" stop-color="#c4b500"/><stop offset="0.15" stop-color="#ffed45"/><stop offset="0.25" stop-color="#fff5b3"/><stop offset="0.44" stop-color="#dfcf00"/><stop offset="0.6" stop-color="#c7b800"/><stop offset="0.8" stop-color="#a89b00"/><stop offset="0.97" stop-color="#998d00"/><stop offset="1" stop-color="#cbbc00"/></linearGradient><linearGradient x1="0%" y1="0%" x2="0%" y2="100%" id="lg43"><stop offset="0" stop-color="#bcad9a"/><stop offset="0.15" stop-color="#fdead3"/><stop offset="0.25" stop-color="#fef3e7"/><stop offset="0.52" stop-color="#deccb6"/><stop offset="0.69" stop-color="#c5b5a2"/><stop offset="0.8" stop-color="#baab98"/><stop offset="0.92" stop-color="#b0a190"/><stop offset="1" stop-color="#cabaa5"/></linearGradient><linearGradient x1="0%" y1="0%" x2="0%" y2="100%" id="lg44"><stop offset="0" stop-color="#292525"/><stop offset="0.03" stop-color="#868584"/><stop offset="0.08" stop-color="#383433"/><stop offset="0.64" stop-color="#373332"/><stop offset="0.95" stop-color="#363130"/><stop offset="1" stop-color="#252221"/></linearGradient><linearGradient x1="0%" y1="0%" x2="0%" y2="100%" id="lg45"><stop offset="0" stop-color="#b5b5b5"/><stop offset="0.03" stop-color="#ffffff"/><stop offset="0.08" stop-color="#ebebeb"/><stop offset="0.64" stop-color="#e7e7e7"/><stop offset="0.95" stop-color="#e2e2e2"/><stop offset="1" stop-color="#a8a8a8"/></linearGradient><linearGradient x1="0%" y1="0%" x2="0%" y2="100%" id="lg46"><stop offset="0" stop-color="#a3a29f"/><stop offset="0.03" stop-color="#ebebe7"/><stop offset="0.08" stop-color="#d4d3cf"/><stop offset="0.64" stop-color="#d0cfcc"/><stop offset="0.95" stop-color="#cccbc7"/><stop offset="1" stop-color="#979693"/></linearGradient><linearGradient x1="0%" y1="0%" x2="0%" y2="100%" id="lg47"><stop offset="0" stop-color="#3d3b3b"/><stop offset="0.03" stop-color="#908f8f"/><stop offset="0.08" stop-color="#514f4f"/><stop offset="0.64" stop-color="#504e4e"/><stop offset="0.95" stop-color="#4e4c4c"/><stop offset="1" stop-color="#383636"/></linearGradient><linearGradient x1="100%" y1="0%" x2="0%" y2="0%" id="lg48"><stop offset="0" stop-color="#bcad9a"/><stop offset="0.15" stop-color="#fdead3"/><stop offset="0.69" stop-color="#c5b5a2"/><stop offset="0.8" stop-color="#baab98"/><stop offset="0.92" stop-color="#b0a190"/><stop offset="1" stop-color="#cabaa5"/></linearGradient><linearGradient x1="0%" y1="0%" x2="0%" y2="100%" id="lg49"><stop offset="0" stop-color="#9b9b9c"/><stop offset="0.17" stop-color="#e4e4e4"/><stop offset="0.35" stop-color="#cbcbcb"/><stop offset="0.65" stop-color="#c7c7c8"/><stop offset="0.8" stop-color="#c3c3c4"/><stop offset="1" stop-color="#909091"/></linearGradient><linearGradient x1="100%" y1="0%" x2="0%" y2="0%" id="lg50"><stop offset="0" stop-color="#b5b5b5"/><stop offset="0.01" stop-color="#ffffff"/><stop offset="0.05" stop-color="#ebebeb"/><stop offset="0.9" stop-color="#e7e7e7"/><stop offset="0.99" stop-color="#e2e2e2"/><stop offset="1" stop-color="#a8a8a8"/></linearGradient><linearGradient x1="100%" y1="0%" x2="0%" y2="0%" id="lg51"><stop offset="0" stop-color="#667790"/><stop offset="0.01" stop-color="#b0bfd8"/><stop offset="0.05" stop-color="#879cbd"/><stop offset="0.9" stop-color="#859aba"/><stop offset="0.95" stop-color="#8296b5"/><stop offset="1" stop-color="#5f6e86"/></linearGradient><linearGradient x1="0%" y1="0%" x2="0%" y2="100%" id="lg52"><stop offset="0" stop-color="#31496e"/><stop offset="0.01" stop-color="#8a98b7"/><stop offset="0.05" stop-color="#426191"/><stop offset="0.9" stop-color="#415f8f"/><stop offset="0.95" stop-color="#405d8b"/><stop offset="1" stop-color="#2d4366"/></linearGradient><linearGradient x1="0%" y1="0%" x2="0%" y2="100%" id="lg53"><stop offset="0" stop-color="#ffa34f"/><stop offset="0.36" stop-color="#ff7a00"/><stop offset="0.67" stop-color="#7a5839"/><stop offset="1" stop-color="#4d0809"/></linearGradient><linearGradient x1="0%" y1="0%" x2="0%" y2="100%" id="lg54"><stop offset="0" stop-color="#ffffff" stop-opacity="0.29"/><stop offset="1" stop-color="#ffffff" stop-opacity="0.04"/></linearGradient></defs><g transform="translate(5,5)" id="page1"><rect fill="#ffffff" height="794" y="0" width="1123" x="0" stroke="#808080"/><g transform="translate(965.25,136)"><path stroke-width="0.5" fill="#eaecf3" d="M6.7,0L0,51.9L60.3,83.2L67.7,30L6.7,0z" transform="translate(49.78,-0)" id="shape1" stroke="#eaecf3"/><path stroke-width="0.5" fill="#e2e4e9" d="M0,0L3.4,0L63.6,29L61,30L0,0z" transform="translate(56.45,0)" id="shape2" stroke="#e2e4e9"/><path stroke-width="0.5" fill="#e2e4e9" d="M50.2,0L0,25.3L64.1,58L110,30.7L50.2,0z" transform="translate(0,52.48)" id="shape3" stroke="#e2e4e9"/><path stroke-width="0.5" fill="#eaecf3" d="M0,0L0,5.4L64.1,37.6L64.1,32.3L0,0z" transform="translate(0,77.81)" id="shape4" stroke="#eaecf3"/><path stroke-width="0.5" fill="#caccd3" d="M0,26.9L45.9,0L45.9,5.7L0,32.8L0,26.9z" transform="translate(64.15,83.18)" id="shape5" stroke="#caccd3"/><path fill="#3498db" d="M6.2,0L61.2,26.7L54.4,72.8L0,46.2L6.2,0z" transform="translate(52.96,4.45)" id="shape6" stroke="#3498db"/><path stroke-width="0.5" fill="#b3b5ba" d="M25.9,0L0,13.6L54.7,41.6L80.4,26.9L25.9,0z" transform="translate(23.95,56.59)" id="shape7" stroke="#b3b5ba"/><path stroke-width="0.5" fill="#e2e4e9" d="M0,11.9C0,11.9,22.8,-0.6,23.4,0C23.9,.6,75,25.5,75,25.5L51.9,38.2L0,11.9z" transform="translate(26.52,58.29)" id="shape8" stroke="#e2e4e9"/><path fill="#5fb7f1" d="M6.1,0L0,44.7L54.8,71L61.2,26.3L6.1,0z" transform="translate(53.1,4.81)" id="shape9" stroke="#5fb7f1"/><path fill="#ffffff" d="M0,35.6L5.1,0L41.1,17.2C41.1,17.2,22.8,16.4,11.4,22.3C0,28.3,0,35.6,0,35.6z" fill-opacity="0.29" transform="translate(54.74,5.39)" id="shape10"/><g transform="translate(29.63,81.47)" id="shape11"><path fill="#caccd3" d="M6.3,.5C6.3,.5,.7,3.6,.7,3.6C-0.1,4.3,-0.3,5.3,.5,5.9C.5,5.9,12.7,12.8,12.7,12.8C14,13.5,15.2,13.3,16.2,12.8C16.2,12.8,22.2,9.4,22.1,9.3C22.9,8.5,22.8,7.2,21.4,6.5C21.5,6.5,9.6,.5,9.7,.5C8.5,-0.2,7.6,-0.1,6.3,.5z"/><path stroke-width="0.5" fill="none" d="M6.3,.5C6.3,.5,.7,3.6,.7,3.6C-0.1,4.3,-0.3,5.3,.5,5.9C.5,5.9,12.7,12.8,12.7,12.8C14,13.5,15.2,13.3,16.2,12.8C16.2,12.8,22.2,9.4,22.1,9.3C22.9,8.5,22.8,7.2,21.4,6.5C21.5,6.5,9.6,.5,9.7,.5C8.5,-0.2,7.6,-0.1,6.3,.5zM3.8,2L19.4,10.8" stroke="#ffffff"/></g><path stroke-width="0.5" fill="#939498" d="M0,0L33,16.4L33,18.6L0,2.3L0,0z" transform="translate(16.25,87.53)" id="shape12" stroke="#939498"/><path stroke-width="0.5" fill="#939498" d="M0,6.7L11.2,0L10.2,3.4L2.3,8.1L0,6.7z" transform="translate(65.96,103.45)" id="shape13" stroke="#939498"/><path stroke-width="0.5" fill="#939498" d="M0,3.5L6.2,0L5.5,2.5L1.6,4.6L0,3.5z" transform="translate(79.5,99.02)" id="shape14" stroke="#939498"/><path fill="none" d="M0,0L51.6,26.6" transform="translate(30.5,67.9)" id="shape15" stroke="#ffffff"/><path fill="none" d="M0,0L51.6,26.6" transform="translate(35.35,65.36)" id="shape16" stroke="#ffffff"/><path fill="none" d="M0,0L50.5,26.3" transform="translate(40.48,62.81)" id="shape17" stroke="#ffffff"/><path fill="none" d="M0,0L51.6,26.6" transform="translate(45.77,60.12)" id="shape18" stroke="#ffffff"/><path fill="none" d="M0,12.7L22.4,0" transform="translate(71.34,79.71)" id="shape19" stroke="#ffffff"/><path fill="none" d="M0,12L23.1,0" transform="translate(32.07,61.11)" id="shape20" stroke="#ffffff"/><path fill="none" d="M0,9.6L19.1,0" transform="translate(41.34,63.52)" id="shape21" stroke="#ffffff"/><path fill="none" d="M0,9.6L19.1,0" transform="translate(45.69,65.92)" id="shape22" stroke="#ffffff"/><path fill="none" d="M0,9.6L19.1,0" transform="translate(51.6,68.61)" id="shape23" stroke="#ffffff"/><path fill="none" d="M0,9.9L19.8,0" transform="translate(56.16,71.16)" id="shape24" stroke="#ffffff"/><path fill="none" d="M0,10.2L20,0" transform="translate(61.15,73.84)" id="shape25" stroke="#ffffff"/><path fill="none" d="M0,10.2L20,0" transform="translate(67.01,76.39)" id="shape26" stroke="#ffffff"/><path fill="#ffffff" d="M0,24.9C0,24.9,48.8,0,49.6,0C51.5,0,102.9,27.2,102.9,27.2C102.9,27.2,83.5,17.2,49.6,17C23.5,16.7,0,24.9,0,24.9z" fill-opacity="0.29" transform="translate(0.57,52.92)" id="shape27"/><path stroke-width="0.5" fill="#caccd3" d="M7.5,1.1L9.7,0L2.2,53L0,54.9L7.5,1.1z" transform="translate(110.04,28.71)" id="shape28" stroke="#caccd3"/></g><g transform="translate(964,352.85)"><path fill="url(#lg1)" d="M22.4,0C22.4,0,18.2,-0.2,16.9,4.4C16.2,6.9,25.2,21.2,21.7,33.2C17.4,48.3,.6,61.4,.6,61.4C.6,61.4,-1.5,66.1,2,68C4.2,69.2,89.9,87.8,89.9,87.8C89.9,87.8,93.9,89.3,95.2,84.4C96.5,79.5,113,13.3,114,10.9C114.4,8.5,111.4,4.5,106.6,4.5C101.7,4.5,22.4,0,22.4,0z" id="shape29"/><path fill="url(#lg2)" d="M22.3,0C22.3,0,18.1,-0.5,16.7,4.3C15.1,10.1,.2,62.7,.2,62.7C.2,62.7,-1,66,2.1,66.8C4.6,67.4,86.9,85,86.9,85C86.9,85,91,86.6,92.3,81.6C93.6,76.5,110.6,8.9,110.6,8.9C110.6,8.9,111.3,5.1,106.8,4.7C101.8,4.3,22.3,0,22.3,0z" transform="translate(0,0.67)" id="shape30"/><path fill="url(#lg3)" d="M21.9,0C21.9,0,17.7,-0.5,16.5,4.1C14.9,9.7,.2,61.2,.2,61.2C.2,61.2,-1,64.5,2,65.2C4.5,65.8,85.5,82.9,85.5,82.9C85.5,82.9,89.5,84.5,90.8,79.5C92.1,74.6,108.7,8.6,108.7,8.6C108.7,8.6,110,5.1,105.1,4.5C100.3,4,21.9,0,21.9,0z" transform="translate(0,1.54)" id="shape31"/><path fill="url(#lg4)" d="M13.2,1.1C12.8,2.3,.1,48,.1,48C.1,48,-0.5,49.9,.8,50.3C2.1,50.7,75.3,64.3,75.3,64.3C75.3,64.3,76.9,64.6,77.5,62.2C78.1,59.8,91.2,7.4,91.2,7.4C91.2,7.4,91.9,5.2,89.9,5.1C88.4,5,15.6,0,15.6,0C15.6,0,13.7,-0.2,13.2,1.1z" transform="translate(8.04,8.28)" id="shape32"/><path fill="#3c3c3c" d="M4,1C4,1,2.5,-0.9,1.8,.5C1,2.1,-0.3,8,0,8.6C.3,9.3,2,8.9,2,8.9L4,1z" transform="translate(95.93,64.69)" id="shape33"/><path fill="#8b8b8b" d="M3.5,1C3.5,1,2.5,-0.8,1.8,.4C1.2,1.5,-0.2,6.9,0,7.7C.2,8.6,1.8,7.7,1.8,7.7L3.5,1z" transform="translate(96.33,65.22)" id="shape34"/><path fill="#3c3c3c" d="M0,7L1.9,0L3.9,.8L2.2,7.7L0,7z" transform="translate(99.14,52.48)" id="shape35"/><path fill="#8b8b8b" d="M3.3,.7L1.7,0L0,6L1.7,6.6L3.3,.7z" transform="translate(99.65,53.06)" id="shape36"/><path fill="url(#lg5)" d="M0,.3C.2,0,.5,-0.1,.7,.1C2,.8,2.1,1.1,1.9,1.3C1.8,1.6,1.5,1.6,1.2,1.5C-0,.8,-0.1,.5,0,.3z" transform="translate(110.6,13.16)" id="shape37"/><path fill="url(#lg5)" d="M0,.3C.2,0,.5,-0.1,.7,.1C2,.8,2.1,1.1,1.9,1.3C1.8,1.6,1.5,1.6,1.2,1.5C-0,.8,-0.1,.5,0,.3z" transform="translate(110.08,14.72)" id="shape38"/><path fill="url(#lg5)" d="M0,.3C.2,0,.5,-0.1,.7,.1C2,.8,2.1,1.1,1.9,1.3C1.8,1.6,1.5,1.6,1.2,1.5C-0,.8,-0.1,.5,0,.3z" transform="translate(109.82,16.4)" id="shape39"/><path fill="url(#lg5)" d="M0,.3C.2,0,.5,-0.1,.7,.1C2,.8,2.1,1.1,1.9,1.3C1.8,1.6,1.5,1.6,1.2,1.5C-0,.8,-0.1,.5,0,.3z" transform="translate(109.3,18.19)" id="shape40"/><path fill="url(#lg5)" d="M0,.3C.2,0,.5,-0.1,.7,.1C2,.8,2.1,1.1,1.9,1.3C1.8,1.6,1.5,1.6,1.2,1.5C-0,.8,-0.1,.5,0,.3z" transform="translate(108.83,19.72)" id="shape41"/><path fill="url(#lg5)" d="M0,.3C.2,0,.5,-0.1,.7,.1C2,.8,2.1,1.1,1.9,1.3C1.8,1.6,1.5,1.6,1.2,1.5C-0,.8,-0.1,.5,0,.3z" transform="translate(108.4,21.41)" id="shape42"/><path fill="url(#lg5)" d="M0,.3C.2,0,.5,-0.1,.7,.1C2,.8,2.1,1.1,1.9,1.3C1.8,1.6,1.5,1.6,1.2,1.5C-0,.8,-0.1,.5,0,.3z" transform="translate(108.09,23.1)" id="shape43"/><path fill="url(#lg5)" d="M0,.3C.2,0,.5,-0.1,.7,.1C2,.8,2.1,1.1,1.9,1.3C1.8,1.6,1.5,1.6,1.2,1.5C-0,.8,-0.1,.5,0,.3z" transform="translate(107.63,24.68)" id="shape44"/><path fill="url(#lg5)" d="M0,.3C.2,0,.5,-0.1,.7,.1C2,.8,2.1,1.1,1.9,1.3C1.8,1.6,1.5,1.6,1.2,1.5C-0,.8,-0.1,.5,0,.3z" transform="translate(107.32,26.2)" id="shape45"/><path fill="url(#lg5)" d="M0,.3C.2,0,.5,-0.1,.7,.1C2,.8,2.1,1.1,1.9,1.3C1.8,1.6,1.5,1.6,1.2,1.5C-0,.8,-0.1,.5,0,.3z" transform="translate(106.85,27.78)" id="shape46"/><path fill="url(#lg5)" d="M0,.3C.2,0,.5,-0.1,.7,.1C2,.8,2.1,1.1,1.9,1.3C1.8,1.6,1.5,1.6,1.2,1.5C-0,.8,-0.1,.5,0,.3z" transform="translate(106.32,29.51)" id="shape47"/><path fill="url(#lg6)" d="M3.7,0L0,6.7C0,6.7,1.9,10.5,7.2,8.1L11,.9C11,.9,5.7,3.3,3.7,0z" transform="translate(51.5,30.37)" id="shape48"/><path fill="url(#lg7)" d="M3.7,.7L0,7.6C0,7.6,4.3,5.6,6.8,8.8L10.8,2.1C10.8,2.1,8.7,-1.4,3.7,.7z" transform="translate(43.49,27.45)" id="shape49"/><path fill="url(#lg8)" d="M10.5,1.9C8.5,-1.4,3.5,.6,3.5,.6L0,7.3C0,7.3,4.5,5.5,6.6,8.9L10.5,1.9z" transform="translate(39.37,35.62)" id="shape50"/><path fill="url(#lg9)" d="M3.6,-0L0,6.7C0,6.7,.1,10,6.5,8.9L10.5,2C10.5,2,5.8,3.1,3.6,-0z" transform="translate(47.2,38.36)" id="shape51"/><path fill="url(#lg10)" d="M21.9,0C21.9,0,17.7,-0.5,16.5,4.2C14.9,9.8,.2,61.3,.2,61.3C.2,61.3,-1,64.5,2,65.3C3.1,65.5,36.6,72.6,36.6,72.6L71,2.6L21.9,0z" transform="translate(0.14,1.5)" id="shape52"/></g><g transform="translate(960.25,522.17)"><path fill="#00188f" d="M5.5,16.3C5.5,17.7,4.4,19,2.7,19C1.1,19,0,17.7,0,16.3L0,2.7C0,1.3,1.1,0,2.7,0C4.4,0,5.5,1.3,5.5,2.7L5.5,16.3z" transform="translate(16.09,52.35)" id="shape53"/><path fill="#00188f" d="M5.5,16.3C5.5,17.7,4.4,19,2.7,19C1.1,19,0,17.7,0,16.3L0,2.7C0,1.3,1.1,0,2.7,0C4.4,0,5.5,1.3,5.5,2.7L5.5,16.3z" transform="translate(53.45,52.35)" id="shape54"/><path fill="#00188f" d="M0,0L0,20.1C0,22.5,1.6,24.1,3.8,24.1L5.5,24.1L5.5,31.1C5.5,32.4,6.5,33.8,7.9,33.8C9.3,33.8,10.4,32.4,10.4,31.1L10.4,24.1L15.8,24.1L15.8,31.1C15.8,32.4,16.9,33.8,18.3,33.8C19.6,33.8,20.7,32.4,20.7,31.1L20.7,24.1L23.2,24.1C25.4,24.1,26.2,22.2,26.2,20.1L26.2,0L0,0z" transform="translate(24.14,52.37)" id="shape55"/><path fill="#00188f" d="M22.4,4.9L24.5,1.2C24.8,.9,24.5,.4,24.3,0C24,0,23.5,0,23.5,.4L21.3,4.4C19.4,3.3,16.9,2.8,14.5,2.8C12,2.8,9.5,3.3,7.6,4.4L5.5,.4C5.2,0,4.9,0,4.6,0C4.4,.4,4.1,.6,4.4,1.2L6.5,4.9C2.7,7.3,0,11.1,0,15.7C0,15.9,0,16.2,0,16.2L28.9,16.2C28.9,16.2,28.9,15.9,28.9,15.7C28.9,11.1,26.5,7.1,22.4,4.9zM7.6,10.8C6.8,10.8,6.3,10.3,6.3,9.5C6.3,8.7,6.8,8.1,7.6,8.1C8.5,8.1,9,8.7,9,9.5C9,10.3,8.5,10.8,7.6,10.8zM21,10.8C20.2,10.8,19.6,10.3,19.6,9.5C19.6,8.7,20.2,8.1,21,8.1C21.8,8.1,22.4,8.7,22.4,9.5C22.4,10.3,21.8,10.8,21,10.8z" transform="translate(23.18,33.38)" id="shape56"/><path fill="#00188f" d="M71.5,0L3.5,0C1.6,0,0,1.3,0,3.2L0,117.1C0,119,1.6,120.8,3.5,120.8L71.5,120.8C73.4,120.8,75,119,75,117.1L75,3.5C74.7,1.6,73.1,0,71.5,0zM30,4.8L46.1,4.8L46.1,7.5L30,7.5L30,4.8zM37.6,118.4C34.6,118.4,32.2,116,32.2,113.1C32.2,110.1,34.6,107.7,37.6,107.7C40.6,107.7,43.1,110.1,43.1,113.1C43.1,116,40.6,118.4,37.6,118.4zM66.8,105.3L7.9,105.3L7.9,13.4L66.8,13.4L66.8,105.3z" id="shape57"/></g><g transform="translate(714.25,339.67)"><g><path fill="url(#lg11)" d="M0,25.2L.7,23.4L56.1,0L93.5,9.7L36.6,47.1L0,25.2z" transform="translate(0.24,0)" id="shape58" stroke="#3a3a3a"/><path fill="#414141" d="M14.7,114.3L73.9,82L73.9,1.1L15.5,27.7L0,74.7L14.7,114.3z" transform="translate(20.06,9.67)" id="shape59" stroke="#414141"/><path fill="url(#lg12)" d="M1.2,0L34.4,13.1C35.1,13.3,35.5,14,35.6,14.4L35.6,99.4C35.6,100.1,35.1,100.5,34.4,100.5L1.2,84.2C.3,83.7,.1,83.4,0,83L0,1.1C0,.5,.5,0,1.2,0z" transform="translate(-0.01,23.43)" id="shape60" stroke="#424242"/><path fill="url(#lg13)" d="M0,27C2.5,28.1,2.8,28,4.7,29.6C5.7,30.5,6.2,33.2,6.2,33.2L61.9,2.4C61.9,2.4,62.2,1.2,61.7,.8C61.3,.5,57.8,0,57.8,0L0,27z" transform="translate(31.99,8.87)" id="shape61"/><path fill="url(#lg14)" d="M-0,0C1.6,0,6.2,2.2,6.4,6C6.5,7.3,6.4,86.1,6.4,86.1C6.4,86.1,3.3,88.7,2.9,88.3C2.6,87.9,.1,87,.1,87L-0,0z" transform="translate(31.66,35.65)" id="shape62"/><path fill="url(#lg15)" d="M21.2,7.2L10.6,88.1L0,83.6L0,.3C0,.3,-0.3,-0.3,1.2,.2L21.2,7.2z" transform="translate(0.14,24.06)" id="shape63"/><g transform="translate(0.08,34.09)"><g transform="translate(0.13,-0)" id="shape64"><g clip-path="url(#clip1)"><path stroke-width="2" fill="url(#lg16)" d="M19.4,0L19.4,10.8L0,0z" stroke="url(#lg16)"/></g><g clip-path="url(#clip1)"><path stroke-width="2" fill="url(#lg17)" d="M19.4,10.8L0,10.8L0,0z" stroke="url(#lg17)"/></g><path fill="none" d="M0,0L0,1.8L19.4,10.8L19.4,8.9L0,0z" stroke="#292929"/></g><g transform="translate(0.13,12.15)" id="shape65"><g clip-path="url(#clip2)"><path stroke-width="2" fill="url(#lg18)" d="M19.4,0L19.4,10.9L0,0z" stroke="url(#lg18)"/></g><g clip-path="url(#clip2)"><path stroke-width="2" fill="url(#lg19)" d="M19.4,10.9L0,10.9L0,0z" stroke="url(#lg19)"/></g><path fill="none" d="M0,0L0,2L19.4,10.9L19.4,8.7L0,0z" stroke="#292929"/></g><g transform="translate(-0,24.4)" id="shape66"><g clip-path="url(#clip3)"><path stroke-width="2" fill="url(#lg20)" d="M19.5,0L19.5,11.1L0,0z" stroke="url(#lg20)"/></g><g clip-path="url(#clip3)"><path stroke-width="2" fill="url(#lg21)" d="M19.5,11.1L0,11.1L0,0z" stroke="url(#lg21)"/></g><path fill="none" d="M0,0L0,2.1L19.5,11.1L19.5,9.1L0,0z" stroke="#292929"/></g><g transform="translate(0.17,37.08)" id="shape67"><g clip-path="url(#clip4)"><path stroke-width="2" fill="url(#lg22)" d="M19.3,0L19.3,10.9L0,0z" stroke="url(#lg22)"/></g><g clip-path="url(#clip4)"><path stroke-width="2" fill="url(#lg23)" d="M19.3,10.9L0,10.9L0,0z" stroke="url(#lg23)"/></g><path fill="none" d="M0,0L0,2.1L19.3,10.9L19.3,8.9L0,0z" stroke="#292929"/></g><g transform="translate(17.98,8.35)" id="shape68"><g clip-path="url(#clip5)"><path stroke-width="2" fill="url(#lg24)" d="M17.5,0L17.5,9.4L0,0z" stroke="url(#lg24)"/></g><g clip-path="url(#clip5)"><path stroke-width="2" fill="url(#lg25)" d="M17.5,9.4L0,9.4L0,0z" stroke="url(#lg25)"/></g><path fill="none" d="M0,0L0,1.8L17.5,9.4L17.5,7.7L0,0z" stroke="url(#lg26)"/></g><g transform="translate(17.98,20.21)" id="shape69"><g clip-path="url(#clip6)"><path stroke-width="2" fill="url(#lg27)" d="M17.6,0L17.6,10.1L0,0z" stroke="url(#lg27)"/></g><g clip-path="url(#clip6)"><path stroke-width="2" fill="url(#lg28)" d="M17.6,10.1L0,10.1L0,0z" stroke="url(#lg28)"/></g><path fill="none" d="M0,0L0,2.2L17.6,10.1L17.6,8.1L0,0z" stroke="url(#lg26)"/></g><g transform="translate(17.88,32.78)" id="shape70"><g clip-path="url(#clip7)"><path stroke-width="2" fill="url(#lg29)" d="M17.7,0L17.7,9.8L0,0z" stroke="url(#lg29)"/></g><g clip-path="url(#clip7)"><path stroke-width="2" fill="url(#lg30)" d="M17.7,9.8L0,9.8L0,0z" stroke="url(#lg30)"/></g><path fill="none" d="M0,0L17.7,8L17.7,9.8L0,2.2L0,0z" stroke="url(#lg26)"/></g><g transform="translate(17.88,45.15)" id="shape71"><g clip-path="url(#clip8)"><path stroke-width="2" fill="url(#lg31)" d="M17.7,10.2L0,10.2L17.7,0z" stroke="url(#lg31)"/></g><g clip-path="url(#clip8)"><path stroke-width="2" fill="url(#lg32)" d="M0,0L0,10.2L17.7,0z" stroke="url(#lg32)"/></g><path fill="none" d="M0,0L17.7,8.3L17.7,10.2L0,2.2L0,0z" stroke="url(#lg26)"/></g><path fill="url(#lg33)" d="M0,0L13.2,5.8L14.7,8.5L0,2L0,0z" transform="translate(18.92,8.77)" id="shape72"/><path fill="url(#lg33)" d="M0,0L13.1,6L14.6,9.1L.1,2.4L0,0z" transform="translate(18.69,20.42)" id="shape73"/><path fill="url(#lg33)" d="M0,0L13.2,5.9L14.7,8.8L0,2.3L0,0z" transform="translate(18.85,33.16)" id="shape74"/><path fill="url(#lg34)" d="M0,0L13.2,5.8L14.7,8.5L0,2L0,0z" transform="translate(18.85,45.71)" id="shape75"/><path fill="url(#lg35)" d="M0,0L15.2,7.1L15.2,8.9L2.1,3.1L0,0z" transform="translate(18.85,45.71)" id="shape76"/><path fill="url(#lg36)" d="M0,0L15.2,7.1L15.2,8.9L2.1,3.1L0,0z" transform="translate(19.1,33.11)" id="shape77"/><path fill="url(#lg36)" d="M0,0L15.2,7.1L15.2,8.9L2.1,3.1L0,0z" transform="translate(19.15,20.79)" id="shape78"/><path fill="url(#lg36)" d="M0,0L15.2,7.1L15.2,8.9L2.1,3.1L0,0z" transform="translate(19.15,8.59)" id="shape79"/></g></g><g transform="translate(47,77.22)"><path fill="url(#rg1)" d="M0,22.8C0,10.2,10.1,0,22.5,0C35,0,45.1,10.2,45.1,22.8C45.1,35.4,35,45.6,22.5,45.6C10.1,45.6,0,35.4,0,22.8z" id="shape80" stroke="#4195f8"/><path fill="url(#lg37)" d="M5.4,5.7C3.2,8.2,3.1,9.4,3.1,9.4C3.1,9.4,2,11.4,2.7,11.8C3.5,12.2,3.7,11.6,4.6,11.6C5.4,11.6,5.8,12.4,6.7,12.4C7.7,12.3,8.4,11.9,9.3,11.8C10.2,11.7,10.9,11.9,11.3,11.5C11.7,11,11.5,10.8,11.2,10.7C10.9,10.6,9.8,11.3,9.4,11.2C9,11.2,8.6,11,8.6,11C8.6,11,7.7,10.8,7.9,10.4C8,10.1,8.6,10.1,8.6,10.1L10.1,10C10.1,10,10.4,8.9,10.7,8.8C11.1,8.7,11.7,8.9,12.1,9.5C12.5,10.2,12.1,10.2,12.8,10.6C13.5,10.9,13.9,10.9,14.1,11C14.3,11.1,14.3,11.2,14.3,11.4C14.3,11.5,13.4,12,13.4,12.4C13.3,12.7,14.1,13.6,14.1,13.6C14.1,13.6,15.2,14.6,16,14.2C16.8,13.9,17.1,14.9,17.2,14.5C17.3,14.1,17.1,13.3,17.1,13.3C17.1,13.3,17.1,12.4,15.9,12.3C15.4,12.2,15.8,11.8,15.4,11.7C15,11.6,15.7,11.1,15.7,11.1C15.7,11.1,16.6,10.3,16.5,10.1C16.4,9.9,15.5,10.1,15.5,10.1C15.5,10.1,15.3,10.2,14.8,10C14.3,9.8,14.8,9.2,14.8,9.2C14.8,9.2,14.6,8.5,14.2,8.6C13.8,8.8,13.5,8.7,13.5,8.7C13.5,8.7,13.2,8.6,12.9,8.4C12.6,8.1,13.3,7.6,14.1,7.7C14.9,7.7,17.4,9,17.6,9.5C17.8,10.1,17.3,10.3,17.3,10.3C17.3,10.3,17.4,11.2,17.8,11.2C18.2,11.3,19,10.3,19,10.3C19,10.3,19.4,10.1,19.9,10.1C20.3,10.1,21.8,10.8,21.8,10.8C21.8,10.8,22.6,11,22.9,11.2C23.1,11.5,23,11.5,22.6,11.8C22.3,12.1,21.2,11.9,21.2,11.9C21.2,11.9,21,11.9,20.8,12.2C20.7,12.5,20.8,13.1,21.2,13.3C21.5,13.5,22.5,13.4,22.8,13.4C23,13.4,23.1,13.7,22.9,14C22.6,14.6,21.3,15.7,21.3,15.9C21.3,16.2,21.5,16,21.7,16.3C21.8,16.6,21.8,17.1,22,17.3C22.2,17.6,22.5,18,22.5,18.5C22.5,18.9,22.2,19.6,22.2,20.2C22.1,20.8,22.6,21.2,22.6,21.5C22.7,21.9,22.8,22.6,22.5,22.9C22.2,23.3,21.9,22.5,21.6,22.2C21.2,22,20.8,22,20.1,22C19.4,22,18.4,23,18.2,23.3C17.9,23.6,17.7,24.4,17.7,25.1C17.7,25.8,18.8,26.5,18.8,26.5C18.8,26.5,19,26.7,19.6,26.8C20.2,26.9,21.1,25.6,21.4,25.6C21.7,25.6,21.7,26.4,21.7,26.4L23.8,26C23.8,26,24.7,26.9,25.2,27.1C25.6,27.2,26.3,27.2,26.7,26.9C27.2,26.6,27.6,25.1,28,24.8C28.5,24.5,29.5,24.6,30.2,24.4C30.9,24.2,31.8,23.2,32.2,22.9C32.7,22.6,32.6,23,33,23C33.3,23.1,34.9,22.5,35.4,22.4C35.9,22.2,36.3,22.7,36.7,22.7C37,22.7,37.4,22.5,37.4,22.5C37.4,22.5,39.5,21.3,40,21.2C40.6,21.1,40.9,21.9,40.9,21.9C40.9,21.9,40.9,26.6,40.9,27.2C40.9,27.8,40.6,29.2,40.3,30.2C40,31.1,33.3,40.7,32.7,40.6C32.1,40.4,34.2,35.4,33.4,34.6C32.7,33.8,29.1,33.6,27.9,32.9C26.8,32.2,28.5,29.8,27.9,29.4C27.3,28.9,25.2,28.7,25.2,28.7C25.2,28.7,21.6,27.7,21,27.9C20.3,28,19.3,29.1,18.8,29.2C18.3,29.4,16.1,29.5,15.5,29.2C15,29,13.9,26.9,13.4,26.6C12.9,26.3,10.7,25.3,10.5,25.8C10.3,26.3,12.6,28.2,12.5,28.4C12.5,28.7,11.3,28,10.7,27.7C10.2,27.5,9.4,25,8.9,24.5C8.5,24.1,7.4,23.9,7.1,23.3C6.9,22.6,7.1,21,6.8,20.6C6.4,20.3,4.4,18,4.6,17.5C4.8,17.1,5.9,17.7,6.2,17.4C6.5,17.2,6.7,16.6,6.4,16.5C6.2,16.4,5.4,16.3,4.9,16.2C4.3,16,3,15.4,2.7,15.4C2.4,15.4,1,15.9,.8,15.6C.6,15.3,2.2,14.8,2.6,14.1C3,13.3,3,12.9,2.9,12.7C2.7,12.5,0,12.9,0,12.9C0,12.9,1.5,9.3,5.4,5.7zM7.5,38.1C8.2,38.1,8.3,37.8,8.5,37.6C8.6,37.4,9.2,37.5,9.5,37.8C9.8,38.2,10.4,38.3,10.7,38.5C11.1,38.7,11.1,39.6,11.1,39.6L11.1,40.6C11.8,41.2,14.5,41.3,14.5,41.8C14.4,42,14.3,42.1,13.9,42.3C13.4,42.5,13.4,42.8,12.9,42.8C12.4,42.8,12.1,42.7,11.6,42.4C11.1,42.2,8.5,40.9,8.1,40.7C7.7,40.5,6.9,40,6.9,40C6.9,40,6.4,39.7,5.9,39.3C5.5,39.1,5.9,38.9,5.9,38.9C5.9,38.9,6.4,38.8,6.5,38.5C6.6,38.3,6.8,38.1,7.5,38.1zM11.9,7.1C12.5,7.4,12.4,6.8,12.9,6.7C13.4,6.5,16.1,7.2,16.1,7.2C16.1,7.2,18.4,8,19,8.1C19.6,8.3,20.2,8.6,20.5,8C20.8,7.5,19.3,6.1,19.3,6.1C19.3,6.1,18.2,4.5,17.8,4.2C17.5,4,16.8,3.8,16.6,4.4C16,4.8,15.2,4.1,14.1,4.3C12.5,4.5,12.4,4.8,12.4,4.8C11.9,5.6,11.4,6.9,11.9,7.1zM19.5,3.7C19.9,3.5,20.3,3.9,20.3,3.9C20.3,3.9,21,3.8,21.2,4.1C21.4,4.5,20.7,4.5,20.4,4.7C20.2,5,20.3,5.7,20.1,5.7C19.9,5.8,19.8,5.5,19.8,5.5C19.4,4.9,19.1,3.8,19.5,3.7zM40.4,12.2C40.4,12.2,39.4,12.3,38.8,12.3C38.2,12.3,38,11.6,38,11.6C37.3,10.7,36.7,9.3,36.3,9.6C36,10,35.4,9.6,35.4,9.6L34.6,8.4C34.6,8.4,34.4,6.7,33.7,6.5C33,6.4,32.4,5.8,32,5.4C31.6,5,30,5.2,29.4,4.9C28.7,4.7,28.1,5,27.9,4.4C27.8,3.8,28.2,3.7,28.2,3.2C28.1,2.7,27.9,2,27.6,2C27.3,2,27.1,2.2,27.1,2.9C27,3.5,26,4.5,25.4,4.6C24.8,4.7,24.3,4.1,24.3,4.1C24.3,4.1,22.4,2.7,22.3,2.3C22.1,1.9,21.3,2,20.8,1.6C20.3,1.1,20,1.6,19.3,1.6C18.5,1.6,18.5,1.5,18.1,1.4C17.7,1.3,17.9,1.5,17,1.5C16.1,1.5,14.3,.8,14.3,.8C14.3,.8,22.3,-1.7,29.7,2.1C37.2,5.3,40.4,12.2,40.4,12.2zM21.7,24.2C21.5,24,21.9,23.7,21.9,23.7C21.9,23.7,22.3,23.4,22.6,23.2C23,23,23.2,22.9,23.5,22.9C23.8,22.9,25.3,23.3,25.3,23.3L26.4,23C26.4,23,27,22.5,27.2,22.5C27.4,22.5,27.3,22.9,27.3,22.9L28.4,22C28.4,22,28.5,21.5,28.9,21.1C29.2,20.7,29.5,20.6,30,20.6C30.4,20.6,30.7,20.6,30.8,20.8C30.9,20.9,30,21.8,30,21.8L28.2,22.8L25.8,24.4C24.9,24.4,24.6,24.4,24.3,24.1C24.1,23.8,24.7,23.6,24.4,23.6C24.1,23.6,23.7,23.7,23.7,23.7C23.7,23.7,22.2,24.9,21.7,24.2z" transform="translate(2.15,-0)" id="shape81"/><path fill="none" stroke-opacity="0.4" d="M0,9C0,9,10,-1.1,28.2,.1" transform="translate(3.4,2.04)" id="shape82" stroke="#ffffff"/><path fill="none" stroke-opacity="0.4" d="M0,11.8C0,11.8,18,3.5,36.3,0" transform="translate(0.87,5.77)" id="shape83" stroke="#ffffff"/><path fill="none" stroke-opacity="0.4" d="M0,12.9C0,12.9,30.6,5,41,0" transform="translate(0.18,10.34)" id="shape84" stroke="#ffffff"/><path fill="none" stroke-opacity="0.4" d="M0,14.3C0,14.3,22.7,12,42.4,0" transform="translate(1.41,16.03)" id="shape85" stroke="#ffffff"/><path fill="none" stroke-opacity="0.4" d="M0,13.9C0,13.9,23,13.1,40.6,0" transform="translate(4.21,22.07)" id="shape86" stroke="#ffffff"/><path fill="none" stroke-opacity="0.4" d="M0,13.7C0,13.7,21.5,13.2,35.1,0" transform="translate(9.33,27.3)" id="shape87" stroke="#ffffff"/><path fill="none" stroke-opacity="0.4" d="M0,10C0,10,16,9.9,26.6,0" transform="translate(15.11,34.35)" id="shape88" stroke="#ffffff"/><path fill="none" stroke-opacity="0.4" d="M0,0C25.4,14.1,14.1,38.3,14.1,38.3" transform="translate(24.36,0.32)" id="shape89" stroke="#ffffff"/><path fill="none" stroke-opacity="0.4" d="M14.9,41.2C14.9,41.2,19.8,17,0,0" transform="translate(19.99,0.45)" id="shape90" stroke="#ffffff"/><path fill="none" stroke-opacity="0.4" d="M0,0C8.4,9.1,14.6,42.3,14.6,42.3" transform="translate(16.42,1.19)" id="shape91" stroke="#ffffff"/><path fill="none" stroke-opacity="0.4" d="M13,43.1C13,43.1,-0.9,21.1,.1,0" transform="translate(13.99,1.89)" id="shape92" stroke="#ffffff"/><path fill="none" stroke-opacity="0.4" d="M1.6,0C-5.6,27.4,13.5,41.8,13.5,41.8" transform="translate(9.45,3.47)" id="shape93" stroke="#ffffff"/><path fill="none" stroke-opacity="0.4" d="M4.1,0C-9.3,25.8,14.4,38.8,14.4,38.8" transform="translate(3.75,6)" id="shape94" stroke="#ffffff"/></g></g><g transform="translate(387.18,354.84)"><path stroke-width="0.333333" fill="#717070" d="M7.8,12.8L23.1,0L25.2,2.4L9.9,15.2L7.8,12.8zM11.4,15.7L29.7,34L27.5,36.2L9.1,17.9L11.4,15.7zM7.2,34.1L51,34.1C54.9,34.1,58.1,36.2,58.1,38.8L0,38.8C0,36.2,3.2,34.1,7.2,34.1z" transform="translate(0,45.18)" id="shape95" stroke="#717070"/><path stroke-width="0.333333" fill="#717070" d="M6.1,0L5.7,2C10.5,3.4,15.1,6.3,18.7,10.6C22.3,14.8,24.3,19.8,24.9,24.7L26.9,24.7C26.3,19.4,24.1,14,20.1,9.3C16.2,4.7,11.3,1.5,6.1,0zM19.6,25.5C19.2,21.5,17.5,17.4,14.6,14C11.7,10.5,7.9,8.2,4,7L3.7,9C7.2,10,10.5,12.1,13.1,15.2C15.7,18.3,17.2,21.9,17.6,25.5L19.6,25.5zM12.9,25.9C12.7,23.1,11.6,20.4,9.6,18.1C7.7,15.8,5.2,14.2,2.5,13.5L2.2,15.4C4.4,16.1,6.5,17.4,8.2,19.3C9.8,21.3,10.7,23.6,11,25.9L12.9,25.9zM-5.9,24.5zM0,23.6C0,22,1.3,20.8,2.8,20.8C4.4,20.8,5.6,22,5.6,23.6C5.6,25.1,4.4,26.4,2.8,26.4C1.3,26.4,0,25.1,0,23.6z" transform="translate(49.07,0)" id="shape96" stroke="#717070"/><path fill="#00a2ff" d="M23.2,38.5C13.4,27,14.9,9.7,26.6,0L61.9,41.9C50.3,51.6,32.9,50.1,23.2,38.5zM0,55.4C0,52.7,2.2,50.5,5,50.5C7.7,50.5,10,52.7,10,55.4C10,58.2,7.7,60.4,5,60.4C2.2,60.4,0,58.2,0,55.4zM17.4,39.7C17.4,37,19.6,34.8,22.4,34.8C25.2,34.8,27.4,37,27.4,39.7C27.4,42.4,25.2,44.7,22.4,44.7C19.6,44.7,17.4,42.4,17.4,39.7z" transform="translate(2.42,4.98)" id="shape97" stroke="#00a2ff"/></g><g transform="matrix(-1,0,0,1,653.2,359.7)"><path stroke-width="0.333333" fill="#717070" d="M7.8,12.8L23.1,0L25.2,2.4L9.9,15.2L7.8,12.8zM11.4,15.7L29.7,34L27.5,36.2L9.1,17.9L11.4,15.7zM7.2,34.1L51,34.1C54.9,34.1,58.1,36.2,58.1,38.8L0,38.8C0,36.2,3.2,34.1,7.2,34.1z" transform="translate(0,45.18)" id="shape98" stroke="#717070"/><path stroke-width="0.333333" fill="#717070" d="M6.1,0L5.7,2C10.5,3.4,15.1,6.3,18.7,10.6C22.3,14.8,24.3,19.8,24.9,24.7L26.9,24.7C26.3,19.4,24.1,14,20.1,9.3C16.2,4.7,11.3,1.5,6.1,0zM19.6,25.5C19.2,21.5,17.5,17.4,14.6,14C11.7,10.5,7.9,8.2,4,7L3.7,9C7.2,10,10.5,12.1,13.1,15.2C15.7,18.3,17.2,21.9,17.6,25.5L19.6,25.5zM12.9,25.9C12.7,23.1,11.6,20.4,9.6,18.1C7.7,15.8,5.2,14.2,2.5,13.5L2.2,15.4C4.4,16.1,6.5,17.4,8.2,19.3C9.8,21.3,10.7,23.6,11,25.9L12.9,25.9zM-5.9,24.5zM0,23.6C0,22,1.3,20.8,2.8,20.8C4.4,20.8,5.6,22,5.6,23.6C5.6,25.1,4.4,26.4,2.8,26.4C1.3,26.4,0,25.1,0,23.6z" transform="translate(49.07,0)" id="shape99" stroke="#717070"/><path fill="#00a2ff" d="M23.2,38.5C13.4,27,14.9,9.7,26.6,0L61.9,41.9C50.3,51.6,32.9,50.1,23.2,38.5zM0,55.4C0,52.7,2.2,50.5,5,50.5C7.7,50.5,10,52.7,10,55.4C10,58.2,7.7,60.4,5,60.4C2.2,60.4,0,58.2,0,55.4zM17.4,39.7C17.4,37,19.6,34.8,22.4,34.8C25.2,34.8,27.4,37,27.4,39.7C27.4,42.4,25.2,44.7,22.4,44.7C19.6,44.7,17.4,42.4,17.4,39.7z" transform="translate(2.42,4.98)" id="shape100" stroke="#00a2ff"/></g><g transform="translate(468.36,354.84)"><path stroke-width="3" fill="none" d="M103.6,6.8L103.1,8.8L102.4,11.2L101.9,12.4L100.3,14L98.9,13.8L97.4,11.9L96.8,10.6L96.2,8.6L95.6,6.3L95,4.4L94.2,2.4L93.6,1.3L91.7,.2L90.6,.5L89.5,1.8L88.9,3.1L88.2,5.4L87.5,7.3L86.8,9.4L86.1,10.9L85.3,12.4L83.3,13.8L82.3,13L81.4,11.5L80.7,9.9L79.9,7.5L79.5,6L79,4.4L78.2,2.4L77.3,1.1L76,.2L74.5,.7L73.2,2.8L72.7,4.6L72,7.2L71.3,9.3L70.5,11.2L69.7,12.5L68.3,13.8L67.1,13.8L65.5,12.2L64.7,10.1L63.6,6.8L62.9,4.6L62.3,3.1L60.9,.7L59.8,0L58.3,1L57.2,3.1L56.7,4.6L56.2,6.2L55.7,7.8L55,9.9L54.2,11.9L52.7,13.5L51.2,14.2L49.8,12.9L49.1,11.2L48.2,8.6L47.5,6.2L47.1,4.6L46.7,3.4L46,2L44.8,.7L43.5,.3L42.3,1.1L41,3.2L40.3,5.2L39.7,7.6L39.1,9.6L38.7,10.7L38.2,11.9L37.4,13L36.3,14L35.2,14L33.8,12.5L33,10.9L32.5,9.4L31.7,7.2L30.9,4.6L30.1,2.8L29.2,1L27.9,.3L26.9,.7L26,1.8L25.2,3.2L24.4,5.1L23.9,6.5L23.4,8.3L22.9,10.1L22.2,11.9L21.3,13L19.9,14L18.6,13.5L17.5,12.2L16.8,10.4L16.3,9.1L15.6,7L15.1,5.2L14.4,3.4L13.6,1.8L12.5,.3L11,.3L9.8,1.5L9.1,3.1L8.5,5.1L8.1,6.5L7.8,8L7.4,9.1L6.9,10.7L6.3,11.9L4.6,13.7L3.4,14.2L2.3,13.5L1.3,11.5L.5,9.6L0,8.1" stroke-linecap="round" id="shape101" stroke="#0096d5"/><path fill="none" d="M103.6,7.3L103.1,5.4L102.4,2.9L101.9,1.8L100.3,.2L98.9,.3L97.4,2.3L96.8,3.6L96.2,5.5L95.6,7.8L95,9.8L94.2,11.7L93.5,12.9L91.7,14L90.6,13.7L89.5,12.4L88.9,11.1L88.1,8.8L87.4,6.8L86.7,4.7L86.1,3.2L85.3,1.8L83.3,.3L81.8,2L80.6,4.2L79.9,6.7L79.4,8.1L79,9.8L78.2,11.7L77.3,13L76,14L74.5,13.5L73.3,11.4L72.7,9.6L71.9,7L71.3,4.9L70.5,2.9L69.6,1.6L68.3,.3L67.1,.3L65.5,2L64.7,4.1L63.6,7.3L62.9,9.6L62.3,11.1L60.9,13.5L59.8,14.2L58.2,13.2L57.1,11.1L56.7,9.6L56.2,8L55.7,6.3L55,4.2L54.2,2.3L52.7,.7L51.2,0L49.8,1.3L49,2.9L48.1,5.5L47.5,8L47,9.4L46.6,10.7L45.9,12.2L44.8,13.5L43.6,13.8L42.2,13L41,10.9L40.3,9L39.7,6.5L39.1,4.6L38.6,3.4L38.1,2.3L37.3,1.1L35.8,0L34.7,.5L33.8,1.6L33,3.2L32.5,4.7L31.7,7L30.9,9.6L30.1,11.4L29.2,13.2L27.9,13.8L26.2,12.7L25.2,10.9L24.4,9.1L23.9,7.6L23.4,5.9L22.8,4.1L22.2,2.3L21.3,1.1L19.8,.2L18.6,.7L17.5,2L16.8,3.8L16.3,5.1L15.7,7.2L15.1,9L14.4,10.7L13.6,12.4L12.5,13.8L11,13.8L9.8,12.7L9.1,11.1L8.5,9.1L8,7.6L7.8,6.2L7.4,5.1L6.9,3.4L6.3,2.3L4.6,.5L3.4,0L2.2,.7L1.2,2.6L.5,4.6L0,6" stroke-linecap="round" id="shape102" stroke="#0096d5"/><path stroke-width="3" fill="none" d="M103.6,6.8L103.1,8.8L102.4,11.2L101.9,12.4L100.3,14L98.9,13.8L97.4,11.9L96.8,10.6L96.2,8.6L95.6,6.3L95,4.4L94.2,2.4L93.6,1.3L91.7,.2L90.6,.5L89.5,1.8L88.9,3.1L88.2,5.4L87.5,7.3L86.8,9.4L86.1,10.9L85.3,12.4L83.3,13.8L82.3,13L81.4,11.5L80.7,9.9L79.9,7.5L79.5,6L79,4.4L78.2,2.4L77.3,1.1L76,.2L74.5,.7L73.2,2.8L72.7,4.6L72,7.2L71.3,9.3L70.5,11.2L69.7,12.5L68.3,13.8L67.1,13.8L65.5,12.2L64.7,10.1L63.6,6.8L62.9,4.6L62.3,3.1L60.9,.7L59.8,0L58.3,1L57.2,3.1L56.7,4.6L56.2,6.2L55.7,7.8L55,9.9L54.2,11.9L52.7,13.5L51.2,14.2L49.8,12.9L49.1,11.2L48.2,8.6L47.5,6.2L47.1,4.6L46.7,3.4L46,2L44.8,.7L43.5,.3L42.3,1.1L41,3.2L40.3,5.2L39.7,7.6L39.1,9.6L38.7,10.7L38.2,11.9L37.4,13L36.3,14L35.2,14L33.8,12.5L33,10.9L32.5,9.4L31.7,7.2L30.9,4.6L30.1,2.8L29.2,1L27.9,.3L26.9,.7L26,1.8L25.2,3.2L24.4,5.1L23.9,6.5L23.4,8.3L22.9,10.1L22.2,11.9L21.3,13L19.9,14L18.6,13.5L17.5,12.2L16.8,10.4L16.3,9.1L15.6,7L15.1,5.2L14.4,3.4L13.6,1.8L12.5,.3L11,.3L9.8,1.5L9.1,3.1L8.5,5.1L8.1,6.5L7.8,8L7.4,9.1L6.9,10.7L6.3,11.9L4.6,13.7L3.4,14.2L2.3,13.5L1.3,11.5L.5,9.6L0,8.1" stroke-linecap="round" id="shape103" stroke="#0096d5"/><path fill="none" d="M103.6,7.3L103.1,5.4L102.4,2.9L101.9,1.8L100.3,.2L98.9,.3L97.4,2.3L96.8,3.6L96.2,5.5L95.6,7.8L95,9.8L94.2,11.7L93.5,12.9L91.7,14L90.6,13.7L89.5,12.4L88.9,11.1L88.1,8.8L87.4,6.8L86.7,4.7L86.1,3.2L85.3,1.8L83.3,.3L81.8,2L80.6,4.2L79.9,6.7L79.4,8.1L79,9.8L78.2,11.7L77.3,13L76,14L74.5,13.5L73.3,11.4L72.7,9.6L71.9,7L71.3,4.9L70.5,2.9L69.6,1.6L68.3,.3L67.1,.3L65.5,2L64.7,4.1L63.6,7.3L62.9,9.6L62.3,11.1L60.9,13.5L59.8,14.2L58.2,13.2L57.1,11.1L56.7,9.6L56.2,8L55.7,6.3L55,4.2L54.2,2.3L52.7,.7L51.2,0L49.8,1.3L49,2.9L48.1,5.5L47.5,8L47,9.4L46.6,10.7L45.9,12.2L44.8,13.5L43.6,13.8L42.2,13L41,10.9L40.3,9L39.7,6.5L39.1,4.6L38.6,3.4L38.1,2.3L37.3,1.1L35.8,0L34.7,.5L33.8,1.6L33,3.2L32.5,4.7L31.7,7L30.9,9.6L30.1,11.4L29.2,13.2L27.9,13.8L26.2,12.7L25.2,10.9L24.4,9.1L23.9,7.6L23.4,5.9L22.8,4.1L22.2,2.3L21.3,1.1L19.8,.2L18.6,.7L17.5,2L16.8,3.8L16.3,5.1L15.7,7.2L15.1,9L14.4,10.7L13.6,12.4L12.5,13.8L11,13.8L9.8,12.7L9.1,11.1L8.5,9.1L8,7.6L7.8,6.2L7.4,5.1L6.9,3.4L6.3,2.3L4.6,.5L3.4,0L2.2,.7L1.2,2.6L.5,4.6L0,6" stroke-linecap="round" id="shape104" stroke="#0096d5"/></g><g transform="translate(196.15,367.43)" id="shape105"><path fill="#ffffff" d="M108.3,58.9C113.5,58.9,117.7,54.6,117.7,49.4L117.7,9.4C117.7,4.2,113.5,0,108.3,0L9.4,0C4.2,0,0,4.2,0,9.4L0,49.4C0,54.6,4.2,58.9,9.4,58.9L108.3,58.9z" stroke="#000000"/><text class="st1"><tspan y="35.9" x="21.4">Système</tspan></text></g><g transform="translate(26,352.85)"><path fill="url(#lg38)" d="M0,10.9L11,10.9L11,0L0,0L0,10.9z" transform="translate(6.56,-0)" id="shape106"/><path fill="url(#lg38)" d="M0,10.9L11,10.9L11,0L0,0L0,10.9z" transform="translate(83.8,-0)" id="shape107"/><path fill="url(#lg39)" d="M.6,0L99.8,0C100.2,0,100.5,.3,100.5,.6L100.5,74.4C100.5,74.7,100.2,75,99.8,75L.6,75C.3,75,0,74.7,0,74.4L0,.6C0,.3,.3,0,.6,0z" transform="translate(0.77,21.6)" id="shape108"/><path fill="url(#lg40)" d="M.6,0L101.4,0C101.7,0,102,.3,102,.6L102,8.2C102,8.6,101.7,8.8,101.4,8.8L.6,8.8C.3,8.8,0,8.6,0,8.2L0,.6C0,.3,.3,0,.6,0z" transform="translate(0,13.61)" id="shape109"/><path fill="url(#lg41)" d="M0,2.9L14.6,2.9L14.6,0L0,0L0,2.9z" transform="translate(4.73,10.77)" id="shape110"/><path fill="url(#lg41)" d="M0,2.9L14.6,2.9L14.6,0L0,0L0,2.9z" transform="translate(81.98,10.77)" id="shape111"/><path fill="url(#lg42)" d="M0,4.9L9.6,4.9L9.6,0L0,0L0,4.9z" transform="translate(27.82,6.87)" id="shape112"/><path fill="url(#lg42)" d="M0,4.9L9.6,4.9L9.6,0L0,0L0,4.9z" transform="translate(45.45,6.87)" id="shape113"/><path fill="url(#lg42)" d="M0,4.9L9.6,4.9L9.6,0L0,0L0,4.9z" transform="translate(63.08,6.87)" id="shape114"/><g transform="translate(3.82,22.57)"><path fill="url(#lg38)" d="M0,0L1.8,0L1.8,72.7L0,72.7L0,0z" transform="translate(4.15,0)" id="shape115"/><path fill="url(#lg38)" d="M0,0L1.8,0L1.8,72.7L0,72.7L0,0z" transform="translate(0,0)" id="shape116"/><path fill="url(#lg38)" d="M0,0L1.8,0L1.8,72.7L0,72.7L0,0z" transform="translate(8.29,0)" id="shape117"/><path fill="url(#lg38)" d="M0,0L1.8,0L1.8,72.7L0,72.7L0,0z" transform="translate(12.44,0)" id="shape118"/></g><g transform="translate(83.86,22.57)"><path fill="url(#lg38)" d="M0,0L1.8,0L1.8,72.6L0,72.6L0,0z" transform="translate(4.15,0)" id="shape119"/><path fill="url(#lg38)" d="M0,0L1.8,0L1.8,72.6L0,72.6L0,0z" transform="translate(0,0)" id="shape120"/><path fill="url(#lg38)" d="M0,0L1.8,0L1.8,72.6L0,72.6L0,0z" transform="translate(8.29,0)" id="shape121"/><path fill="url(#lg38)" d="M0,0L1.8,0L1.8,72.6L0,72.6L0,0z" transform="translate(12.44,0)" id="shape122"/></g><path fill="url(#lg41)" d="M0,2.1L12.8,2.1L12.8,0L0,0L0,2.1z" transform="translate(26.22,11.65)" id="shape123"/><path fill="url(#lg41)" d="M0,2.1L12.8,2.1L12.8,0L0,0L0,2.1z" transform="translate(43.85,11.65)" id="shape124"/><path fill="url(#lg41)" d="M0,2.1L12.8,2.1L12.8,0L0,0L0,2.1z" transform="translate(61.47,11.65)" id="shape125"/></g><g transform="translate(193.39,567)"><path fill="#3498db" d="M123.2,76L123.2,0L0,0L0,76L123.2,76z" id="shape126" stroke="#3498db"/><g transform="translate(7.5,7.5)" id="shape127"><path fill="none" stroke-dasharray="2.5,2.5" d="M108.2,61L108.2,0L0,0L0,61L108.2,61z" stroke="#ffffff"/><text class="st2"><tspan y="37.5" x="22.1">Charge</tspan></text></g></g><path fill="#3498db" d="M0,23.6L23.6,0L23.6,14.2L117.1,14.2L117.1,0L140.7,23.6L117.1,47.2L117.1,33.1L23.6,33.1L23.6,47.2L0,23.6z" transform="matrix(0,-1,1,0,231.4,567)" id="shape128" stroke="#3498db"/><path fill="#3498db" d="M0,23.6L23.6,0L23.6,14.2L44.5,14.2L44.5,0L68.1,23.6L44.5,47.2L44.5,33.1L23.6,33.1L23.6,47.2L0,23.6z" transform="translate(128,373.23)" id="shape129" stroke="#3498db"/><g transform="matrix(0,-1,1,0,228.6,293)"><path fill="url(#lg43)" d="M0,0L106.3,0L106.3,9.1L0,9.1L0,0z" transform="translate(0,20.44)" id="shape130"/><path fill="url(#lg44)" d="M0,0L34.5,0L34.5,45.8L0,45.8L0,0z" transform="translate(27.85,2.11)" id="shape131"/><path fill="url(#lg45)" d="M.1,0L3.1,0C3.1,0,3.1,0,3.1,.1L3.1,35.3C3.1,35.3,3.1,35.3,3.1,35.3L.1,35.3C0,35.3,0,35.3,0,35.3L0,.1C0,0,0,0,.1,0z" transform="translate(73.64,7.33)" id="shape132"/><path fill="url(#lg45)" d="M.1,0L3.1,0C3.1,0,3.1,0,3.1,.1L3.1,35.3C3.1,35.3,3.1,35.3,3.1,35.3L.1,35.3C0,35.3,0,35.3,0,35.3L0,.1C0,0,0,0,.1,0z" transform="translate(13.63,7.33)" id="shape133"/><path fill="url(#lg46)" d="M.1,0L11.3,0C11.4,0,11.4,0,11.4,.1L11.4,49.9C11.4,50,11.4,50,11.3,50L.1,50C0,50,0,50,0,49.9L0,.1C0,0,0,0,.1,0z" transform="translate(16.65,0)" id="shape134"/><path fill="url(#lg46)" d="M.1,0L11.3,0C11.4,0,11.4,0,11.4,.1L11.4,49.9C11.4,50,11.4,50,11.3,50L.1,50C0,50,0,50,0,49.9L0,.1C0,0,0,0,.1,0z" transform="translate(62.32,0)" id="shape135"/><path fill="url(#lg47)" d="M0,0L38.8,0L38.8,32L0,32L0,0z" transform="translate(25.67,9)" id="shape136"/><path fill="url(#lg48)" d="M0,0L.9,9.1L0,0z" transform="translate(96.62,20.44)" id="shape137"/><path fill="url(#lg48)" d="M0,0L.9,9.1L0,0z" transform="translate(10.9,20.44)" id="shape138"/><path fill="url(#lg48)" d="M0,0L.9,9.1L0,0z" transform="translate(8.9,20.44)" id="shape139"/><path fill="url(#lg48)" d="M0,0L.9,9.1L0,0z" transform="translate(6.9,20.44)" id="shape140"/><path fill="url(#lg48)" d="M0,0L.9,9.1L0,0z" transform="translate(4.89,20.44)" id="shape141"/><path fill="url(#lg48)" d="M0,0L.9,9.1L0,0z" transform="translate(94.62,20.44)" id="shape142"/><path fill="url(#lg48)" d="M0,0L.9,9.1L0,0z" transform="translate(92.61,20.44)" id="shape143"/><path fill="url(#lg48)" d="M0,0L.9,9.1L0,0z" transform="translate(90.61,20.44)" id="shape144"/><path fill="url(#lg48)" d="M0,0L.9,9.1L0,0z" transform="translate(88.61,20.44)" id="shape145"/><path fill="url(#lg48)" d="M0,0L.9,9.1L0,0z" transform="translate(86.61,20.44)" id="shape146"/><path fill="url(#lg48)" d="M0,0L.9,9.1L0,0z" transform="translate(84.61,20.44)" id="shape147"/><path fill="url(#lg48)" d="M0,0L.9,9.1L0,0z" transform="translate(82.6,20.44)" id="shape148"/><path fill="url(#lg48)" d="M0,0L.9,9.1L0,0z" transform="translate(80.35,20.44)" id="shape149"/><path fill="url(#lg48)" d="M0,0L.9,9.1L0,0z" transform="translate(78.6,20.44)" id="shape150"/></g><g transform="translate(178,104)"><g transform="translate(0,84.58)"><path fill="url(#lg49)" d="M0,0L14.3,0L14.3,4L0,4L0,0z" transform="matrix(0,-1,1,0,150,14.7)" id="shape151"/><path fill="url(#lg49)" d="M0,0L14.3,0L14.3,4L0,4L0,0z" transform="matrix(0,-1,1,0,0,14.7)" id="shape152"/><path fill="url(#lg49)" d="M0,0L14.3,0L14.3,4L0,4L0,0z" transform="matrix(0,-1,1,0,37.5,14.7)" id="shape153"/><path fill="url(#lg49)" d="M0,0L14.3,0L14.3,4L0,4L0,0z" transform="matrix(0,-1,1,0,75,14.7)" id="shape154"/><path fill="url(#lg49)" d="M0,0L14.3,0L14.3,4L0,4L0,0z" transform="matrix(0,-1,1,0,112.5,14.7)" id="shape155"/><path fill="url(#lg49)" d="M0,0L154,0L154,4L0,4L0,0z" transform="translate(0,11.43)" id="shape156"/><path fill="url(#lg49)" d="M0,0L154,0L154,3.6L0,3.6L0,0z" transform="translate(0,0)" id="shape157"/></g><g transform="translate(102.41,0)"><path fill="url(#lg50)" d="M.1,0L51.2,0C51.2,0,51.3,0,51.3,.1L51.3,84.7C51.3,84.9,51.2,84.9,51.2,84.9L.1,84.9C.1,84.9,0,84.9,0,84.7L0,.1C0,0,.1,0,.1,0z" id="shape158"/><path fill="#415f8d" d="M0,0L48.4,0L48.4,82L0,82L0,0z" transform="translate(1.48,1.43)" id="shape159"/><g transform="translate(5.51,3.91)"><path fill="url(#lg51)" d="M0,0L.7,77.1L0,0z" transform="translate(5.66,0)" id="shape160"/><path fill="url(#lg51)" d="M0,0L.7,77.1L0,0z" transform="translate(11.32,0)" id="shape161"/><path fill="url(#lg51)" d="M0,0L.7,77.1L0,0z" transform="translate(16.98,0)" id="shape162"/><path fill="url(#lg51)" d="M0,0L.7,77.1L0,0z" transform="translate(22.64,0)" id="shape163"/><path fill="url(#lg51)" d="M0,0L.7,77.1L0,0z" transform="translate(28.3,0)" id="shape164"/><path fill="url(#lg51)" d="M0,0L.7,77.1L0,0z" transform="translate(33.96,0)" id="shape165"/><path fill="url(#lg51)" d="M0,0L.7,77.1L0,0z" transform="translate(39.62,0)" id="shape166"/><path fill="url(#lg51)" d="M0,0L.7,77.1L0,0z" transform="translate(-0,0)" id="shape167"/></g><path fill="url(#lg52)" d="M0,0L48.4,0L48.4,2.6L0,2.6L0,0z" transform="translate(1.48,80.88)" id="shape168"/><path fill="url(#lg52)" d="M0,0L48.4,0L48.4,2.6L0,2.6L0,0z" transform="translate(1.48,1.42)" id="shape169"/><g transform="translate(1.52,8.66)"><path fill="url(#lg51)" d="M0,0L.7,48.3L0,0z" transform="matrix(0,1,-1,0,48.3,5.6)" id="shape170"/><path fill="url(#lg51)" d="M0,0L.7,48.3L0,0z" transform="matrix(0,1,-1,0,48.3,11.3)" id="shape171"/><path fill="url(#lg51)" d="M0,0L.7,48.3L0,0z" transform="matrix(0,1,-1,0,48.3,16.7)" id="shape172"/><path fill="url(#lg51)" d="M0,0L.7,48.3L0,0z" transform="matrix(0,1,-1,0,48.3,22.2)" id="shape173"/><path fill="url(#lg51)" d="M0,0L.7,48.3L0,0z" transform="matrix(0,1,-1,0,48.3,27.8)" id="shape174"/><path fill="url(#lg51)" d="M0,0L.7,48.3L0,0z" transform="matrix(0,1,-1,0,48.3,33.3)" id="shape175"/><path fill="url(#lg51)" d="M0,0L.7,48.3L0,0z" transform="matrix(0,1,-1,0,48.3,38.9)" id="shape176"/><path fill="url(#lg51)" d="M0,0L.7,48.3L0,0z" transform="matrix(0,1,-1,0,48.3,0)" id="shape177"/><path fill="url(#lg51)" d="M0,0L.7,48.3L0,0z" transform="matrix(0,1,-1,0,48.3,44.5)" id="shape178"/><path fill="url(#lg51)" d="M0,0L.7,48.3L0,0z" transform="matrix(0,1,-1,0,48.3,50)" id="shape179"/><path fill="url(#lg51)" d="M0,0L.7,48.3L0,0z" transform="matrix(0,1,-1,0,48.3,55.4)" id="shape180"/><path fill="url(#lg51)" d="M0,0L.7,48.3L0,0z" transform="matrix(0,1,-1,0,48.3,61)" id="shape181"/><path fill="url(#lg51)" d="M0,0L.7,48.3L0,0z" transform="matrix(0,1,-1,0,48.3,66.7)" id="shape182"/></g></g><g transform="translate(0.27,0)"><path fill="url(#lg50)" d="M.1,0L51.2,0C51.2,0,51.3,0,51.3,.1L51.3,84.7C51.3,84.9,51.2,84.9,51.2,84.9L.1,84.9C.1,84.9,0,84.9,0,84.7L0,.1C0,0,.1,0,.1,0z" id="shape183"/><path fill="#415f8d" d="M0,0L48.4,0L48.4,82L0,82L0,0z" transform="translate(1.48,1.43)" id="shape184"/><g transform="translate(5.51,3.91)"><path fill="url(#lg51)" d="M0,0L.7,77.1L0,0z" transform="translate(5.66,0)" id="shape185"/><path fill="url(#lg51)" d="M0,0L.7,77.1L0,0z" transform="translate(11.32,0)" id="shape186"/><path fill="url(#lg51)" d="M0,0L.7,77.1L0,0z" transform="translate(16.98,0)" id="shape187"/><path fill="url(#lg51)" d="M0,0L.7,77.1L0,0z" transform="translate(22.64,0)" id="shape188"/><path fill="url(#lg51)" d="M0,0L.7,77.1L0,0z" transform="translate(28.3,0)" id="shape189"/><path fill="url(#lg51)" d="M0,0L.7,77.1L0,0z" transform="translate(33.96,0)" id="shape190"/><path fill="url(#lg51)" d="M0,0L.7,77.1L0,0z" transform="translate(39.62,0)" id="shape191"/><path fill="url(#lg51)" d="M0,0L.7,77.1L0,0z" transform="translate(-0,0)" id="shape192"/></g><path fill="url(#lg52)" d="M0,0L48.4,0L48.4,2.6L0,2.6L0,0z" transform="translate(1.48,80.88)" id="shape193"/><path fill="url(#lg52)" d="M0,0L48.4,0L48.4,2.6L0,2.6L0,0z" transform="translate(1.48,1.42)" id="shape194"/><g transform="translate(1.52,8.66)"><path fill="url(#lg51)" d="M0,0L.7,48.3L0,0z" transform="matrix(0,1,-1,0,48.3,5.6)" id="shape195"/><path fill="url(#lg51)" d="M0,0L.7,48.3L0,0z" transform="matrix(0,1,-1,0,48.3,11.3)" id="shape196"/><path fill="url(#lg51)" d="M0,0L.7,48.3L0,0z" transform="matrix(0,1,-1,0,48.3,16.7)" id="shape197"/><path fill="url(#lg51)" d="M0,0L.7,48.3L0,0z" transform="matrix(0,1,-1,0,48.3,22.2)" id="shape198"/><path fill="url(#lg51)" d="M0,0L.7,48.3L0,0z" transform="matrix(0,1,-1,0,48.3,27.8)" id="shape199"/><path fill="url(#lg51)" d="M0,0L.7,48.3L0,0z" transform="matrix(0,1,-1,0,48.3,33.3)" id="shape200"/><path fill="url(#lg51)" d="M0,0L.7,48.3L0,0z" transform="matrix(0,1,-1,0,48.3,38.9)" id="shape201"/><path fill="url(#lg51)" d="M0,0L.7,48.3L0,0z" transform="matrix(0,1,-1,0,48.3,0)" id="shape202"/><path fill="url(#lg51)" d="M0,0L.7,48.3L0,0z" transform="matrix(0,1,-1,0,48.3,44.5)" id="shape203"/><path fill="url(#lg51)" d="M0,0L.7,48.3L0,0z" transform="matrix(0,1,-1,0,48.3,50)" id="shape204"/><path fill="url(#lg51)" d="M0,0L.7,48.3L0,0z" transform="matrix(0,1,-1,0,48.3,55.4)" id="shape205"/><path fill="url(#lg51)" d="M0,0L.7,48.3L0,0z" transform="matrix(0,1,-1,0,48.3,61)" id="shape206"/><path fill="url(#lg51)" d="M0,0L.7,48.3L0,0z" transform="matrix(0,1,-1,0,48.3,66.7)" id="shape207"/></g></g><g transform="translate(51.34,0)"><path fill="url(#lg50)" d="M.1,0L51.2,0C51.2,0,51.3,0,51.3,.1L51.3,84.7C51.3,84.9,51.2,84.9,51.2,84.9L.1,84.9C.1,84.9,0,84.9,0,84.7L0,.1C0,0,.1,0,.1,0z" id="shape208"/><path fill="#415f8d" d="M0,0L48.4,0L48.4,82L0,82L0,0z" transform="translate(1.48,1.43)" id="shape209"/><g transform="translate(5.51,3.91)"><path fill="url(#lg51)" d="M0,0L.7,77.1L0,0z" transform="translate(5.66,0)" id="shape210"/><path fill="url(#lg51)" d="M0,0L.7,77.1L0,0z" transform="translate(11.32,0)" id="shape211"/><path fill="url(#lg51)" d="M0,0L.7,77.1L0,0z" transform="translate(16.98,0)" id="shape212"/><path fill="url(#lg51)" d="M0,0L.7,77.1L0,0z" transform="translate(22.64,0)" id="shape213"/><path fill="url(#lg51)" d="M0,0L.7,77.1L0,0z" transform="translate(28.3,0)" id="shape214"/><path fill="url(#lg51)" d="M0,0L.7,77.1L0,0z" transform="translate(33.96,0)" id="shape215"/><path fill="url(#lg51)" d="M0,0L.7,77.1L0,0z" transform="translate(39.62,0)" id="shape216"/><path fill="url(#lg51)" d="M0,0L.7,77.1L0,0z" transform="translate(-0,0)" id="shape217"/></g><path fill="url(#lg52)" d="M0,0L48.4,0L48.4,2.6L0,2.6L0,0z" transform="translate(1.48,80.88)" id="shape218"/><path fill="url(#lg52)" d="M0,0L48.4,0L48.4,2.6L0,2.6L0,0z" transform="translate(1.48,1.42)" id="shape219"/><g transform="translate(1.52,8.66)"><path fill="url(#lg51)" d="M0,0L.7,48.3L0,0z" transform="matrix(0,1,-1,0,48.3,5.6)" id="shape220"/><path fill="url(#lg51)" d="M0,0L.7,48.3L0,0z" transform="matrix(0,1,-1,0,48.3,11.3)" id="shape221"/><path fill="url(#lg51)" d="M0,0L.7,48.3L0,0z" transform="matrix(0,1,-1,0,48.3,16.7)" id="shape222"/><path fill="url(#lg51)" d="M0,0L.7,48.3L0,0z" transform="matrix(0,1,-1,0,48.3,22.2)" id="shape223"/><path fill="url(#lg51)" d="M0,0L.7,48.3L0,0z" transform="matrix(0,1,-1,0,48.3,27.8)" id="shape224"/><path fill="url(#lg51)" d="M0,0L.7,48.3L0,0z" transform="matrix(0,1,-1,0,48.3,33.3)" id="shape225"/><path fill="url(#lg51)" d="M0,0L.7,48.3L0,0z" transform="matrix(0,1,-1,0,48.3,38.9)" id="shape226"/><path fill="url(#lg51)" d="M0,0L.7,48.3L0,0z" transform="matrix(0,1,-1,0,48.3,0)" id="shape227"/><path fill="url(#lg51)" d="M0,0L.7,48.3L0,0z" transform="matrix(0,1,-1,0,48.3,44.5)" id="shape228"/><path fill="url(#lg51)" d="M0,0L.7,48.3L0,0z" transform="matrix(0,1,-1,0,48.3,50)" id="shape229"/><path fill="url(#lg51)" d="M0,0L.7,48.3L0,0z" transform="matrix(0,1,-1,0,48.3,55.4)" id="shape230"/><path fill="url(#lg51)" d="M0,0L.7,48.3L0,0z" transform="matrix(0,1,-1,0,48.3,61)" id="shape231"/><path fill="url(#lg51)" d="M0,0L.7,48.3L0,0z" transform="matrix(0,1,-1,0,48.3,66.7)" id="shape232"/></g></g><path fill="#ffffff" d="M140.4,0L149.9,.5L149.9,82.6L0,82.3L140.4,0z" fill-opacity="0.08" transform="translate(2.4,0.9)" id="shape233"/></g><path fill="#3498db" d="M0,23.6L23.6,0L23.6,14.2L64.8,14.2L64.8,0L88.4,23.6L64.8,47.2L64.8,33.1L23.6,33.1L23.6,47.2L0,23.6z" transform="matrix(0,-1,1,0,231.4,367.4)" id="shape234" stroke="#3498db"/><g transform="matrix(0,1,-1,0,845.1,151)"><path fill="url(#lg53)" d="M0,2.8L0,0L496,0L496,5.7L0,5.7L0,2.8z" id="shape235"/><path fill="url(#lg54)" d="M0,2.8L0,0L496,0L496,5.7L0,5.7L0,2.8z" id="shape236"/></g><g transform="translate(808.25,398.84)"><path fill="url(#lg53)" d="M0,2.8L0,0L34,0L34,5.7L0,5.7L0,2.8z" id="shape237"/><path fill="url(#lg54)" d="M0,2.8L0,0L34,0L34,5.7L0,5.7L0,2.8z" id="shape238"/></g><g transform="translate(842.25,182.66)" id="shape239"><path fill="#000000" d="M161,13.3L81.5,19L90.3,2L2,13.3L81.5,7.7L72.7,24.7L161,13.3z" fill-opacity="0.2"/><path fill="#ffaf00" d="M159,11.3L79.5,17L88.3,0L0,11.3L79.5,5.7L70.7,22.7L159,11.3z" stroke="#ffaf00"/></g><g transform="matrix(1,-0.04,0.04,1,841.8,390.3)" id="shape240"><path fill="#000000" d="M123.8,13.4L62.8,19.1L69.6,2.1L1.9,13.4L62.8,7.7L56.1,24.8L123.8,13.4z" fill-opacity="0.2"/><path fill="#ffaf00" d="M121.8,11.3L60.9,17L67.7,0L0,11.3L60.9,5.7L54.1,22.7L121.8,11.3z" stroke="#ffaf00"/></g><g transform="translate(842.25,571.24)" id="shape241"><path fill="#000000" d="M120,13.3L61,19L67.6,2L2,13.3L61,7.7L54.4,24.7L120,13.3z" fill-opacity="0.2"/><path fill="#ffaf00" d="M118,11.3L59,17L65.6,0L0,11.3L59,5.7L52.4,22.7L118,11.3z" stroke="#ffaf00"/></g><path fill="#3498db" d="M0,23.6L23.6,0L23.6,14.2L69.1,14.2L69.1,33.1L23.6,33.1L23.6,47.2L0,23.6z" transform="matrix(-1,0,0,-1,383,420.5)" id="shape242" stroke="#3498db"/><path fill="#3498db" d="M0,23.6L23.6,0L23.6,14.2L57.2,14.2L57.2,33.1L23.6,33.1L23.6,47.2L0,23.6z" transform="matrix(-1,0,0,-1,714.2,425.3)" id="shape243" stroke="#3498db"/></g></svg>